<svg width="19" height="25" viewBox="0 0 19 25" fill="none" xmlns="http://www.w3.org/2000/svg">
<path d="M5.12474 5.73272C5.33351 5.73272 5.53374 5.62306 5.68137 5.42788C5.829 5.23269 5.91194 4.96796 5.91194 4.69192V4.17153C5.91194 4.03351 5.9534 3.90114 6.02722 3.80355C6.10103 3.70596 6.20115 3.65113 6.30554 3.65113L10.6351 3.65113C10.6875 3.64974 10.7395 3.66218 10.7882 3.68771C10.8368 3.71325 10.8812 3.75136 10.9186 3.79982C10.9559 3.84828 10.9856 3.90612 11.0059 3.96995C11.0262 4.03377 11.0366 4.1023 11.0366 4.17153L11.0366 20.8242C11.0366 20.9623 10.9951 21.0946 10.9213 21.1922C10.8475 21.2898 10.7474 21.3446 10.643 21.3446L6.31341 21.3446C6.20902 21.3446 6.1089 21.2898 6.03509 21.1922C5.96128 21.0946 5.91981 20.9623 5.91981 20.8242V19.7835C5.91981 19.5074 5.83687 19.2427 5.68924 19.0475C5.54161 18.8523 5.34139 18.7427 5.13261 18.7427C4.92383 18.7427 4.7236 18.8523 4.57597 19.0475C4.42834 19.2427 4.34541 19.5074 4.34541 19.7835V22.3854C4.34541 22.6615 4.42834 22.9262 4.57597 23.1214C4.7236 23.3166 4.92383 23.4262 5.13261 23.4262L11.0366 23.4262V24.467C11.0365 24.5442 11.0491 24.6206 11.0736 24.6907C11.098 24.7608 11.1338 24.823 11.1783 24.8729C11.2242 24.9218 11.2774 24.9573 11.3343 24.977C11.3913 24.9967 11.4508 25.0003 11.5089 24.9874L18.5937 22.9058C18.684 22.8815 18.7649 22.8161 18.8224 22.721C18.88 22.6259 18.9105 22.5072 18.9086 22.3854L18.9086 2.61033C18.9105 2.48859 18.88 2.36984 18.8224 2.27475C18.7649 2.17966 18.684 2.11427 18.5937 2.08994L11.5089 0.00834656C11.4513 -0.00532341 11.392 -0.00214005 11.3354 0.0176754C11.2787 0.0374889 11.2261 0.0734539 11.1811 0.123045C11.1361 0.172636 11.0998 0.234652 11.0748 0.304737C11.0499 0.374823 11.0368 0.451281 11.0366 0.528744L11.0366 1.56954L5.13261 1.56954C4.92383 1.56954 4.7236 1.67919 4.57597 1.87438C4.42834 2.06957 4.34541 2.3343 4.34541 2.61033V4.69192C4.3454 4.96617 4.42725 5.22933 4.57318 5.42422C4.71911 5.61911 4.91733 5.72998 5.12474 5.73272ZM12.9967 11.9775C12.9967 11.6692 13.0658 11.3677 13.1952 11.1112C13.3246 10.8547 13.5086 10.6546 13.7239 10.5362C13.9392 10.4177 14.1762 10.3862 14.405 10.4456C14.6339 10.505 14.8443 10.6526 15.0097 10.8699C15.1752 11.0872 15.2882 11.3644 15.3347 11.6666C15.3811 11.9687 15.3589 12.2823 15.2707 12.5678C15.1825 12.8532 15.0324 13.0977 14.8393 13.2705C14.6461 13.4433 14.4186 13.5366 14.1854 13.5387C14.0297 13.5401 13.8753 13.5007 13.7311 13.4228C13.5869 13.345 13.4558 13.2302 13.3454 13.0851C13.2349 12.94 13.1472 12.7674 13.0874 12.5773C13.0275 12.3873 12.9967 12.1834 12.9967 11.9775Z" fill="white" fill-opacity="0.9"/>
<path d="M1.20451 13.5387L4.44777 13.5387V15.3601C4.44815 15.5484 4.48716 15.733 4.56063 15.8943C4.6341 16.0556 4.73929 16.1875 4.86499 16.276C4.98809 16.3596 5.12567 16.3988 5.26387 16.3896C5.40207 16.3805 5.53601 16.3234 5.65219 16.224L9.48586 12.8414C9.59301 12.7462 9.68081 12.6176 9.74152 12.4669C9.80223 12.3163 9.83398 12.1482 9.83398 11.9775C9.83398 11.8068 9.80223 11.6388 9.74152 11.4881C9.68081 11.3375 9.59301 11.2089 9.48586 11.1137L5.65219 7.73108C5.53371 7.6252 5.39565 7.56399 5.25284 7.55403C5.11002 7.54406 4.96786 7.58572 4.8416 7.67454C4.71535 7.76335 4.60978 7.89596 4.53624 8.05812C4.46269 8.22028 4.42394 8.40586 4.42416 8.59494V10.4163L1.18089 10.4163C0.867725 10.4163 0.567385 10.5808 0.345942 10.8736C0.124498 11.1664 9.25064e-05 11.5635 9.25064e-05 11.9775C9.25064e-05 12.3916 0.124498 12.7887 0.345942 13.0815C0.567385 13.3742 0.867725 13.5387 1.18089 13.5387H1.20451Z" fill="white" fill-opacity="0.9"/>
</svg>
