<svg xmlns="http://www.w3.org/2000/svg" viewBox="0 0 24 24" height="30" width="30"><g><path d="M21.75,5.52,13,.28a2,2,0,0,0-2,0L2.25,5.52a2,2,0,0,0-1,1.69v9.58a2,2,0,0,0,1,1.69l2.62,1.57A3.12,3.12,0,0,0,9.6,17.37V8.12a1,1,0,0,0-2,0v9.25a1.13,1.13,0,0,1-.57,1,1.14,1.14,0,0,1-1.13,0L3.29,16.79V7.24L12,2l8.73,5.21v9.55L12,22,10.3,21a1,1,0,1,0-1,1.71l1.72,1a2,2,0,0,0,2,0l8.74-5.24a2,2,0,0,0,1-1.69V7.21A2,2,0,0,0,21.75,5.52Z" fill="#ffffff"></path><path d="M15.51,14.76a9.33,9.33,0,0,1-2.24,0,.85.85,0,0,1-.75-.85,1,1,0,0,0-2,0A2.87,2.87,0,0,0,13,16.75a11.84,11.84,0,0,0,1.36.08,12.16,12.16,0,0,0,1.37-.08,2.87,2.87,0,0,0,2.5-2.84A2.68,2.68,0,0,0,16,11.26l-2.91-.49a.69.69,0,0,1-.58-.68.85.85,0,0,1,.75-.85,9.33,9.33,0,0,1,2.24,0,.85.85,0,0,1,.75.85,1,1,0,0,0,2,0,2.87,2.87,0,0,0-2.5-2.84,12.46,12.46,0,0,0-2.73,0,2.87,2.87,0,0,0-2.51,2.84,2.68,2.68,0,0,0,2.25,2.65l2.91.49a.68.68,0,0,1,.58.68A.85.85,0,0,1,15.51,14.76Z" fill="#ffffff"></path></g></svg>